<mxfile host="app.diagrams.net" modified="2023-10-03T15:31:21.245Z" agent="Mozilla/5.0 (Windows NT 10.0; Win64; x64) AppleWebKit/537.36 (KHTML, like Gecko) Chrome/117.0.0.0 Safari/537.36" etag="TgSPIRcbTUtO0Yzoy0_I" version="21.2.0" type="device">
  <diagram name="Page-1" id="xDC_Y-IOQM0nBWiHuZnc">
    <mxGraphModel dx="1228" dy="634" grid="1" gridSize="10" guides="1" tooltips="1" connect="1" arrows="1" fold="1" page="1" pageScale="1" pageWidth="1100" pageHeight="850" math="0" shadow="0">
      <root>
        <mxCell id="0" />
        <mxCell id="1" parent="0" />
        <mxCell id="Eyyml6wb6Zn5YN_G37yv-16" value="" style="edgeStyle=orthogonalEdgeStyle;rounded=0;orthogonalLoop=1;jettySize=auto;html=1;" edge="1" parent="1" source="Eyyml6wb6Zn5YN_G37yv-2" target="Eyyml6wb6Zn5YN_G37yv-3">
          <mxGeometry relative="1" as="geometry" />
        </mxCell>
        <mxCell id="Eyyml6wb6Zn5YN_G37yv-2" value="PiHole" style="shape=image;html=1;verticalAlign=top;verticalLabelPosition=bottom;labelBackgroundColor=#ffffff;imageAspect=0;aspect=fixed;image=https://cdn1.iconfinder.com/data/icons/fruit-136/64/Fruit_iconfree_Filled_Outline_raspberry-healthy-organic-food-fruit_icon-128.png" vertex="1" parent="1">
          <mxGeometry x="370" y="115" width="100" height="100" as="geometry" />
        </mxCell>
        <mxCell id="Eyyml6wb6Zn5YN_G37yv-17" value="" style="edgeStyle=orthogonalEdgeStyle;rounded=0;orthogonalLoop=1;jettySize=auto;html=1;" edge="1" parent="1" source="Eyyml6wb6Zn5YN_G37yv-3" target="Eyyml6wb6Zn5YN_G37yv-4">
          <mxGeometry relative="1" as="geometry" />
        </mxCell>
        <mxCell id="Eyyml6wb6Zn5YN_G37yv-3" value="Unifi Gateway" style="image;html=1;image=img/lib/clip_art/networking/Router_Icon_128x128.png" vertex="1" parent="1">
          <mxGeometry x="230" y="125" width="80" height="80" as="geometry" />
        </mxCell>
        <mxCell id="Eyyml6wb6Zn5YN_G37yv-4" value="Internet" style="image;aspect=fixed;perimeter=ellipsePerimeter;html=1;align=center;shadow=0;dashed=0;spacingTop=3;image=img/lib/active_directory/internet_cloud.svg;" vertex="1" parent="1">
          <mxGeometry x="60" y="130" width="111.11" height="70" as="geometry" />
        </mxCell>
        <mxCell id="Eyyml6wb6Zn5YN_G37yv-5" value="DC 2" style="verticalLabelPosition=bottom;html=1;verticalAlign=top;align=center;strokeColor=none;fillColor=#00BEF2;shape=mxgraph.azure.azure_active_directory;" vertex="1" parent="1">
          <mxGeometry x="510" y="185" width="95" height="100" as="geometry" />
        </mxCell>
        <mxCell id="Eyyml6wb6Zn5YN_G37yv-6" value="Client Mobile" style="shape=image;html=1;verticalAlign=top;verticalLabelPosition=bottom;labelBackgroundColor=#ffffff;imageAspect=0;aspect=fixed;image=https://cdn2.iconfinder.com/data/icons/mobile-and-internet-business/499/mobile_in_hand-128.png" vertex="1" parent="1">
          <mxGeometry x="723" y="299" width="83" height="83" as="geometry" />
        </mxCell>
        <mxCell id="Eyyml6wb6Zn5YN_G37yv-8" value="Client Desktop" style="shape=mxgraph.cisco.computers_and_peripherals.macintosh;html=1;pointerEvents=1;dashed=0;fillColor=#036897;strokeColor=#ffffff;strokeWidth=2;verticalLabelPosition=bottom;verticalAlign=top;align=center;outlineConnect=0;" vertex="1" parent="1">
          <mxGeometry x="723" y="35" width="99" height="64" as="geometry" />
        </mxCell>
        <mxCell id="Eyyml6wb6Zn5YN_G37yv-12" value="" style="edgeStyle=orthogonalEdgeStyle;rounded=0;orthogonalLoop=1;jettySize=auto;html=1;entryX=0.51;entryY=0;entryDx=0;entryDy=0;entryPerimeter=0;" edge="1" parent="1" source="Eyyml6wb6Zn5YN_G37yv-9" target="Eyyml6wb6Zn5YN_G37yv-5">
          <mxGeometry relative="1" as="geometry">
            <Array as="points">
              <mxPoint x="660" y="225" />
              <mxPoint x="660" y="170" />
              <mxPoint x="559" y="170" />
            </Array>
          </mxGeometry>
        </mxCell>
        <mxCell id="Eyyml6wb6Zn5YN_G37yv-9" value="Client Laptop" style="verticalLabelPosition=bottom;sketch=0;aspect=fixed;html=1;verticalAlign=top;strokeColor=none;align=center;outlineConnect=0;shape=mxgraph.citrix.laptop_2;" vertex="1" parent="1">
          <mxGeometry x="710" y="164" width="104.6" height="78" as="geometry" />
        </mxCell>
        <mxCell id="Eyyml6wb6Zn5YN_G37yv-13" value="" style="endArrow=none;html=1;rounded=0;" edge="1" parent="1" target="Eyyml6wb6Zn5YN_G37yv-6">
          <mxGeometry width="50" height="50" relative="1" as="geometry">
            <mxPoint x="660" y="210" as="sourcePoint" />
            <mxPoint x="730" y="360" as="targetPoint" />
            <Array as="points">
              <mxPoint x="660" y="341" />
            </Array>
          </mxGeometry>
        </mxCell>
        <mxCell id="Eyyml6wb6Zn5YN_G37yv-10" value="" style="edgeStyle=orthogonalEdgeStyle;rounded=0;orthogonalLoop=1;jettySize=auto;html=1;entryX=0.51;entryY=1;entryDx=0;entryDy=0;entryPerimeter=0;" edge="1" parent="1" source="Eyyml6wb6Zn5YN_G37yv-8" target="Eyyml6wb6Zn5YN_G37yv-1">
          <mxGeometry relative="1" as="geometry">
            <mxPoint x="700" y="160" as="sourcePoint" />
            <Array as="points">
              <mxPoint x="660" y="85" />
              <mxPoint x="660" y="170" />
              <mxPoint x="559" y="170" />
            </Array>
          </mxGeometry>
        </mxCell>
        <mxCell id="Eyyml6wb6Zn5YN_G37yv-11" value="DNS Query" style="edgeLabel;html=1;align=center;verticalAlign=middle;resizable=0;points=[];" vertex="1" connectable="0" parent="Eyyml6wb6Zn5YN_G37yv-10">
          <mxGeometry x="0.3281" relative="1" as="geometry">
            <mxPoint x="27" y="5" as="offset" />
          </mxGeometry>
        </mxCell>
        <mxCell id="Eyyml6wb6Zn5YN_G37yv-14" value="" style="endArrow=classic;html=1;rounded=0;entryX=1;entryY=0.5;entryDx=0;entryDy=0;exitX=0;exitY=0.58;exitDx=0;exitDy=0;exitPerimeter=0;" edge="1" parent="1" source="Eyyml6wb6Zn5YN_G37yv-5" target="Eyyml6wb6Zn5YN_G37yv-2">
          <mxGeometry width="50" height="50" relative="1" as="geometry">
            <mxPoint x="520" y="355" as="sourcePoint" />
            <mxPoint x="570" y="305" as="targetPoint" />
          </mxGeometry>
        </mxCell>
        <mxCell id="Eyyml6wb6Zn5YN_G37yv-15" value="" style="endArrow=classic;html=1;rounded=0;entryX=1;entryY=0.5;entryDx=0;entryDy=0;exitX=0;exitY=0.58;exitDx=0;exitDy=0;exitPerimeter=0;" edge="1" parent="1" source="Eyyml6wb6Zn5YN_G37yv-1" target="Eyyml6wb6Zn5YN_G37yv-2">
          <mxGeometry width="50" height="50" relative="1" as="geometry">
            <mxPoint x="520" y="253" as="sourcePoint" />
            <mxPoint x="480" y="175" as="targetPoint" />
          </mxGeometry>
        </mxCell>
        <mxCell id="Eyyml6wb6Zn5YN_G37yv-18" value="1.1.1.1" style="image;aspect=fixed;html=1;points=[];align=center;fontSize=12;image=img/lib/azure2/networking/DNS_Zones.svg;" vertex="1" parent="1">
          <mxGeometry x="40" y="68" width="64" height="64" as="geometry" />
        </mxCell>
        <mxCell id="Eyyml6wb6Zn5YN_G37yv-19" value="208.67.222.222" style="image;aspect=fixed;html=1;points=[];align=center;fontSize=12;image=img/lib/azure2/networking/DNS_Zones.svg;" vertex="1" parent="1">
          <mxGeometry x="120" y="68" width="64" height="64" as="geometry" />
        </mxCell>
        <mxCell id="Eyyml6wb6Zn5YN_G37yv-1" value="DC 1" style="verticalLabelPosition=bottom;html=1;verticalAlign=top;align=center;strokeColor=none;fillColor=#00BEF2;shape=mxgraph.azure.azure_active_directory;labelBackgroundColor=default;" vertex="1" parent="1">
          <mxGeometry x="510" y="41" width="95" height="100" as="geometry" />
        </mxCell>
      </root>
    </mxGraphModel>
  </diagram>
</mxfile>
